<?xml version="1.0" encoding="iso-8859-1"?>
<!-- Uploaded to: SVG Repo, www.svgrepo.com, Generator: SVG Repo Mixer Tools -->
<svg fill="#000000" height="800px" width="800px" version="1.1" id="Layer_1" xmlns="http://www.w3.org/2000/svg" xmlns:xlink="http://www.w3.org/1999/xlink" 
	 viewBox="0 0 512.005 512.005" xml:space="preserve">
<g>
	<g>
		<path d="M475.595,347.589l-16.896,16.875L347.36,251.909l106.069-109.653l22.165,22.165c4.16,4.16,9.621,6.251,15.083,6.251
			c5.44,0,10.901-2.091,15.083-6.251c8.32-8.341,8.32-21.845,0-30.165l-128-128c-8.341-8.341-21.845-8.341-30.165,0
			c-8.341,8.32-8.341,21.824,0,30.165l15.168,15.168L256.011,159.515L149.259,51.589l15.168-15.168c8.32-8.341,8.32-21.845,0-30.165
			c-8.341-8.341-21.845-8.341-30.165,0l-128,128c-8.341,8.32-8.341,21.824,0,30.165c4.16,4.16,9.621,6.251,15.083,6.251
			c5.44,0,10.901-2.091,15.083-6.251l22.144-22.165L164.64,251.909L53.301,364.464l-16.875-16.875
			c-8.341-8.341-21.845-8.341-30.165,0c-8.341,8.32-8.341,21.824,0,30.165l128,128c4.16,4.16,9.621,6.251,15.083,6.251
			c5.44,0,10.901-2.091,15.083-6.251c8.32-8.341,8.32-21.845,0-30.165l-17.003-17.003l108.587-112.235l108.565,112.235
			l-16.981,17.003c-8.341,8.32-8.341,21.824,0,30.165c4.16,4.16,9.621,6.251,15.083,6.251c5.44,0,10.901-2.091,15.083-6.251l128-128
			c8.32-8.341,8.32-21.845,0-30.165C497.419,339.248,483.915,339.248,475.595,347.589z M127.755,417.563L94.091,383.92
			l100.224-101.333l8.427,8.704l23.573,24.384L127.755,417.563z M286.005,189.851L392.928,81.755l30.315,30.336L317.365,221.552
			L286.005,189.851z"/>
	</g>
</g>
</svg>